<?xml version="1.0" encoding="utf-8"?>
<!-- Generator: Adobe Illustrator 17.0.0, SVG Export Plug-In . SVG Version: 6.00 Build 0)  -->
<!DOCTYPE svg PUBLIC "-//W3C//DTD SVG 1.1//EN" "http://www.w3.org/Graphics/SVG/1.1/DTD/svg11.dtd">
<svg version="1.1" id="Layer_1" xmlns="http://www.w3.org/2000/svg" xmlns:xlink="http://www.w3.org/1999/xlink" x="0px" y="0px"
	 width="1024px" height="1024px" viewBox="0 0 1024 1024" enable-background="new 0 0 1024 1024" xml:space="preserve">
<g>
	<path fill="#FFFFFF" d="M521.253,470.731c2.835,3.018,6.379,5.507,10.542,7.406c4.058,1.853,8.68,2.792,13.739,2.792
		c10.003,0,18.751-2.291,26-6.809c6.034-3.763,11.749-8.311,17.053-13.563l-46.386-53.092c-2.77,1.665-5.519,3.437-8.216,5.298
		c-4.196,2.898-8.035,6.181-11.406,9.752c-3.193,3.378-5.813,7.186-7.788,11.322c-1.838,3.855-2.732,8.092-2.732,12.95
		c0,4.548,0.827,8.967,2.458,13.135C516.141,464.073,518.406,467.709,521.253,470.731z"/>
	<path fill="#FFFFFF" d="M847.446,264.975L558.207,97.983c-25.519-14.734-66.895-14.734-92.414,0L176.554,264.975
		c-25.519,14.734-46.207,50.566-46.207,80.033v333.984l0.003-0.001c0-0.938,0.025-1.886,0.062-2.839
		c-0.037,0.953-0.062,1.901-0.062,2.839c0,29.473,20.68,65.296,46.206,80.033l289.239,166.991c25.514,14.737,66.897,14.737,92.411,0
		l289.239-166.991c25.525-14.737,46.206-50.559,46.206-80.033V345.253c0-0.082,0.003-0.163,0.003-0.245
		C893.653,315.54,872.965,279.709,847.446,264.975z M475.718,422.421c3.18-7.956,7.474-15.169,12.763-21.438
		c5.124-6.079,10.999-11.591,17.46-16.381c3.583-2.653,7.201-5.213,10.82-7.659c-5.871-7.035-10.834-14.139-14.804-21.198
		c-5.633-10.012-8.49-20.706-8.49-31.782c0-9.139,1.829-17.56,5.437-25.027c3.548-7.354,8.385-13.734,14.376-18.96
		c5.965-5.203,12.951-9.182,20.766-11.828c7.65-2.593,15.659-3.907,23.804-3.907c8.437,0,16.464,1.397,23.859,4.152
		c7.361,2.75,13.898,6.503,19.436,11.156c5.626,4.738,10.115,10.214,13.349,16.282c3.37,6.344,5.077,12.894,5.077,19.478
		c0,5.731-2.257,10.827-6.525,14.737c-4.066,3.732-8.883,5.708-13.921,5.708c-5.08,0-9.58-1.715-13.013-4.96
		c-2.98-2.811-5.146-6.359-6.426-10.539l-0.052-0.177c-1.183-4.215-3.646-8.068-7.531-11.779c-3.406-3.25-7.742-4.831-13.254-4.831
		c-6.656,0-12.295,1.939-17.239,5.927c-4.491,3.627-6.584,8.468-6.584,15.234c0,2.671,0.588,5.263,1.797,7.924
		c1.48,3.258,3.393,6.624,5.682,10.005c2.374,3.516,5.055,7.037,7.975,10.474c3.05,3.597,6.08,7.244,9.013,10.847l54.475,62.718
		c1.746-3.087,3.402-6.222,4.956-9.381c3.175-6.463,6.216-12.932,9.035-19.221c2.643-5.952,5.41-9.36,8.964-11.027
		c2.755-1.283,5.955-1.902,9.802-1.902c5.089,0,9.887,2.012,13.873,5.82c4.086,3.918,6.24,8.972,6.24,14.626
		c0,4.269-0.966,9.046-2.95,14.605c-1.787,5-4.127,10.224-6.955,15.526c-2.734,5.126-5.811,10.351-9.144,15.529
		c-2.01,3.116-3.977,6.074-5.883,8.844l22.174,26.439c3.154,3.862,4.755,8.209,4.755,12.921c0,5.479-1.826,10.342-5.426,14.455
		c-3.81,4.354-9.004,6.656-15.021,6.656c-4.335,0-8.066-1.121-11.092-3.332c-2.245-1.65-4.396-3.775-6.586-6.507l-15.897-18.879
		c-2.569,2.339-5.223,4.624-7.938,6.833c-5.121,4.167-10.737,7.911-16.691,11.129c-6.053,3.268-12.649,5.896-19.609,7.814
		c-7.089,1.952-14.841,2.942-23.042,2.942c-11.105,0-21.446-1.796-30.737-5.338c-9.326-3.553-17.511-8.561-24.327-14.884
		c-6.865-6.362-12.247-13.959-15.994-22.579c-3.742-8.607-5.64-18.108-5.64-28.24C470.833,439.616,472.477,430.522,475.718,422.421z
		 M185.44,352.891c8.751-52.525,47.665-95.758,96.932-114.069c54.947-20.422,119.415-4.211,159.432,38.168
		c10.946,11.592,11.519,29.875,0,41.393c-11.034,11.034-30.44,11.6-41.393,0c-2.425-2.568-4.917-5.079-7.558-7.427
		c-1.136-1.01-4.911-3.966-5.6-4.567c-4.276-2.998-8.716-5.768-13.361-8.16c-1.777-0.915-3.561-1.817-5.38-2.643
		c-2.475-0.951-4.971-1.853-7.508-2.626c-5.294-1.613-10.655-2.859-16.096-3.782c-8.16-0.776-16.334-0.77-24.489,0.031
		c-5.475,0.926-10.897,2.177-16.185,3.879c-1.816,0.584-3.622,1.199-5.413,1.856c-1.652,0.734-4.798,2.112-5.988,2.728
		c-5.439,2.812-10.717,5.955-15.671,9.562c-0.048,0.035-0.087,0.063-0.133,0.097c-0.723,0.592-1.45,1.18-2.155,1.793
		c-2.298,1.998-4.556,4.047-6.698,6.212c-2.448,2.474-4.831,5.016-7.058,7.693c-0.264,0.318-0.613,0.758-0.971,1.218
		c-0.276,0.381-0.562,0.755-0.831,1.141c-3.498,5.029-6.7,10.276-9.395,15.782c-0.526,1.074-1.04,2.155-1.541,3.241
		c-1.037,2.722-2.015,5.468-2.845,8.261c-1.479,4.975-2.633,10.012-3.502,15.117c-0.791,8.186-0.788,16.394,0.016,24.58
		c0.926,5.48,2.178,10.908,3.882,16.201c0.584,1.816,1.2,3.622,1.856,5.414c0.734,1.653,2.112,4.798,2.728,5.988
		c2.812,5.439,5.955,10.717,9.562,15.671c0.035,0.048,0.063,0.087,0.097,0.133c0.592,0.723,1.18,1.45,1.793,2.155
		c1.998,2.298,4.047,4.556,6.212,6.698c2.474,2.448,5.016,4.831,7.693,7.058c0.318,0.265,0.758,0.613,1.218,0.971
		c0.381,0.276,0.755,0.562,1.141,0.831c5.029,3.498,10.276,6.7,15.782,9.395c1.074,0.526,2.155,1.04,3.241,1.541
		c2.722,1.037,5.468,2.015,8.261,2.845c4.97,1.477,10.001,2.631,15.101,3.499c8.211,0.793,16.44,0.779,24.654-0.025
		c5.321-0.899,10.593-2.103,15.737-3.743c2.203-0.703,4.393-1.45,6.56-2.259c1.263-0.615,5.099-2.357,6.329-3.01
		c5.098-2.707,10.037-5.726,14.712-9.116c0.741-0.592,1.528-1.226,1.973-1.612c1.144-0.992,2.289-1.985,3.395-3.019
		c2.215-2.07,4.357-4.202,6.439-6.406c10.953-11.599,30.359-11.034,41.393,0c11.518,11.518,10.946,29.801,0,41.393
		c-11.643,12.33-25.784,23.294-41.094,30.689c-13.447,6.495-27.616,11.882-42.473,13.958c-17.104,2.389-32.721,2.595-49.8,0.146
		c-26.316-3.773-50.296-15.788-70.922-32.212C194.952,461.662,176.635,405.742,185.44,352.891z M534.386,774.193
		c-11.643,12.33-25.784,23.294-41.094,30.689c-13.447,6.495-27.616,11.882-42.473,13.958c-17.104,2.389-32.721,2.595-49.8,0.146
		c-26.316-3.773-50.296-15.788-70.922-32.212c-42.561-33.89-60.878-89.809-52.073-142.66c8.751-52.525,47.665-95.758,96.932-114.069
		c54.947-20.422,119.415-4.211,159.432,38.168c10.946,11.592,11.518,29.875,0,41.393c-11.034,11.034-30.44,11.6-41.393,0
		c-2.425-2.568-4.917-5.079-7.558-7.427c-1.136-1.01-4.912-3.966-5.6-4.567c-4.276-2.999-8.716-5.768-13.361-8.16
		c-1.777-0.915-3.561-1.817-5.381-2.643c-2.475-0.951-4.97-1.853-7.507-2.626c-5.294-1.613-10.655-2.859-16.096-3.782
		c-8.16-0.776-16.334-0.77-24.489,0.031c-5.475,0.926-10.897,2.177-16.185,3.879c-1.816,0.584-3.622,1.199-5.413,1.856
		c-1.652,0.734-4.798,2.112-5.988,2.728c-5.439,2.812-10.717,5.955-15.671,9.562c-0.048,0.035-0.087,0.063-0.133,0.096
		c-0.723,0.592-1.45,1.18-2.155,1.793c-2.298,1.998-4.556,4.047-6.698,6.212c-2.448,2.474-4.831,5.016-7.058,7.693
		c-0.265,0.318-0.613,0.758-0.971,1.218c-0.276,0.381-0.562,0.755-0.831,1.141c-3.498,5.029-6.7,10.276-9.395,15.782
		c-0.526,1.074-1.04,2.155-1.541,3.241c-1.037,2.722-2.015,5.468-2.845,8.261c-1.479,4.975-2.633,10.012-3.502,15.117
		c-0.791,8.186-0.788,16.394,0.016,24.58c0.926,5.48,2.178,10.908,3.882,16.201c0.584,1.815,1.199,3.622,1.855,5.413
		c0.734,1.652,2.113,4.798,2.728,5.989c2.812,5.439,5.955,10.717,9.562,15.671c0.035,0.048,0.063,0.087,0.096,0.133
		c0.592,0.723,1.18,1.45,1.793,2.155c1.998,2.298,4.046,4.556,6.212,6.698c2.474,2.448,5.016,4.831,7.693,7.058
		c0.318,0.264,0.758,0.613,1.218,0.971c0.381,0.276,0.755,0.562,1.141,0.831c5.029,3.498,10.276,6.7,15.782,9.395
		c1.074,0.526,2.155,1.04,3.241,1.541c2.722,1.037,5.468,2.015,8.261,2.845c4.97,1.478,10.001,2.631,15.101,3.499
		c8.211,0.793,16.44,0.779,24.654-0.025c5.321-0.899,10.593-2.103,15.737-3.743c2.203-0.702,4.393-1.45,6.559-2.259
		c1.263-0.615,5.099-2.357,6.329-3.01c5.098-2.707,10.036-5.725,14.711-9.115c0.742-0.592,1.529-1.227,1.973-1.612
		c1.144-0.992,2.289-1.985,3.395-3.019c2.215-2.07,4.357-4.202,6.439-6.406c10.953-11.6,30.359-11.035,41.393,0
		C545.905,744.318,545.332,762.601,534.386,774.193z M658.543,693.155c-11.545,0-23.09,0-34.636,0c0,11.545,0,23.09,0,34.636
		c0,11.966-9.986,21.952-21.952,21.952s-21.952-9.986-21.952-21.952c0-11.545,0-23.09,0-34.636c-11.545,0-23.09,0-34.636,0
		c-11.966,0-21.952-9.986-21.952-21.952c0-11.966,9.986-21.952,21.952-21.952c11.545,0,23.09,0,34.636,0c0-11.545,0-23.09,0-34.636
		c0-11.967,9.986-21.952,21.952-21.952s21.952,9.986,21.952,21.952c0,11.545,0,23.09,0,34.636c11.545,0,23.09,0,34.636,0
		c11.967,0,21.952,9.986,21.952,21.952C680.495,683.169,670.51,693.155,658.543,693.155z M823.428,693.155
		c-11.545,0-23.09,0-34.636,0c0,11.545,0,23.09,0,34.636c0,11.966-9.986,21.952-21.952,21.952s-21.952-9.986-21.952-21.952
		c0-11.545,0-23.09,0-34.636c-11.545,0-23.09,0-34.636,0c-11.967,0-21.952-9.986-21.952-21.952c0-11.966,9.986-21.952,21.952-21.952
		c11.545,0,23.09,0,34.636,0c0-11.545,0-23.09,0-34.636c0-11.967,9.986-21.952,21.952-21.952s21.952,9.986,21.952,21.952
		c0,11.545,0,23.09,0,34.636c11.545,0,23.09,0,34.636,0c11.966,0,21.952,9.986,21.952,21.952
		C845.38,683.169,835.395,693.155,823.428,693.155z"/>
</g>
<rect x="468" y="260" opacity="0.5" fill="#FFFFFF" width="210" height="262"/>
</svg>
